<?xml version="1.0" standalone="no"?>
<!DOCTYPE svg PUBLIC "-//W3C//DTD SVG 20010904//EN"
 "http://www.w3.org/TR/2001/REC-SVG-20010904/DTD/svg10.dtd">
<svg version="1.0" xmlns="http://www.w3.org/2000/svg"
 width="116.000000pt" height="143.000000pt" viewBox="0 0 116.000000 143.000000"
 preserveAspectRatio="xMidYMid meet">

<g transform="translate(0.000000,143.000000) scale(0.100000,-0.100000)"
fill="currentColor" stroke="none">
<path d="M112 1370 c-60 -28 -62 -31 -51 -52 7 -13 111 -195 231 -406 215
-376 219 -384 208 -418 -9 -27 -9 -40 4 -65 16 -32 16 -33 -32 -108 -59 -93
-64 -101 -60 -101 2 0 31 38 63 85 37 51 65 83 73 80 8 -3 21 -5 31 -5 11 0
44 -47 100 -145 45 -80 84 -145 87 -145 5 0 1 9 -76 183 -49 112 -51 119 -36
142 20 30 20 69 2 98 -13 21 -7 31 100 176 86 118 111 158 102 168 -6 7 -16
13 -22 13 -7 0 -59 -72 -115 -161 -93 -143 -106 -160 -129 -157 -22 3 -41 41
-207 423 -102 234 -189 421 -197 422 -7 1 -41 -11 -76 -27z m197 -288 c69
-158 149 -342 179 -410 30 -68 53 -125 50 -127 -4 -4 -448 768 -448 780 0 5
76 43 90 44 3 0 61 -129 129 -287z m305 -568 c26 -25 20 -44 -15 -44 -20 0
-29 -4 -26 -12 2 -7 14 -12 26 -10 15 1 21 -3 19 -10 -6 -17 -56 -22 -74 -7
-22 18 -17 65 8 83 28 20 43 20 62 0z"/>
<path d="M570 489 c0 -5 5 -7 10 -4 6 3 10 8 10 11 0 2 -4 4 -10 4 -5 0 -10
-5 -10 -11z"/>
<path d="M895 1139 c-66 -105 -121 -194 -123 -199 -3 -8 94 -70 110 -70 5 0
208 313 251 387 7 11 -88 74 -109 73 -5 -1 -63 -86 -129 -191z m179 141 l34
-21 -110 -172 c-60 -95 -114 -176 -118 -181 -12 -12 -82 33 -73 47 4 7 51 81
106 165 54 85 101 160 104 168 7 19 16 18 57 -6z"/>
</g>
</svg>
