<svg xmlns="http://www.w3.org/2000/svg" version="1.1" xmlns:xlink="http://www.w3.org/1999/xlink" xmlns:svgjs="http://svgjs.dev/svgjs" viewBox="0 0 800 800" opacity="1"><g stroke="#141414" fill="none" stroke-linecap="square"><circle r="360" cx="400" cy="400" stroke-width="20" stroke-dasharray="68 50" stroke-dashoffset="25" transform="rotate(101, 400, 400)"></circle><circle r="337.5" cx="400" cy="400" stroke-width="19" stroke-dasharray="45 45" stroke-dashoffset="25" transform="rotate(287, 400, 400)"></circle><circle r="315" cx="400" cy="400" stroke-width="19" stroke-dasharray="50 46" stroke-dashoffset="25" transform="rotate(259, 400, 400)"></circle><circle r="292.5" cx="400" cy="400" stroke-width="18" stroke-dasharray="63 68" stroke-dashoffset="25" transform="rotate(183, 400, 400)"></circle><circle r="270" cx="400" cy="400" stroke-width="18" stroke-dasharray="73 49" stroke-dashoffset="25" transform="rotate(205, 400, 400)"></circle><circle r="247.5" cx="400" cy="400" stroke-width="18" stroke-dasharray="52 65" stroke-dashoffset="25" transform="rotate(342, 400, 400)"></circle><circle r="225" cx="400" cy="400" stroke-width="17" stroke-dasharray="63 76" stroke-dashoffset="25" transform="rotate(184, 400, 400)"></circle><circle r="202.5" cx="400" cy="400" stroke-width="17" stroke-dasharray="76 49" stroke-dashoffset="25" transform="rotate(279, 400, 400)"></circle><circle r="180" cx="400" cy="400" stroke-width="16" stroke-dasharray="63 53" stroke-dashoffset="25" transform="rotate(6, 400, 400)"></circle><circle r="157.5" cx="400" cy="400" stroke-width="16" stroke-dasharray="54 48" stroke-dashoffset="25" transform="rotate(45, 400, 400)"></circle><circle r="135" cx="400" cy="400" stroke-width="16" stroke-dasharray="52 46" stroke-dashoffset="25" transform="rotate(119, 400, 400)"></circle><circle r="112.5" cx="400" cy="400" stroke-width="15" stroke-dasharray="59 53" stroke-dashoffset="25" transform="rotate(211, 400, 400)"></circle><circle r="90" cx="400" cy="400" stroke-width="15" stroke-dasharray="66 69" stroke-dashoffset="25" transform="rotate(224, 400, 400)"></circle><circle r="67.5" cx="400" cy="400" stroke-width="14" stroke-dasharray="48 46" stroke-dashoffset="25" transform="rotate(172, 400, 400)"></circle><circle r="45" cx="400" cy="400" stroke-width="14" stroke-dasharray="67 62" stroke-dashoffset="25" transform="rotate(290, 400, 400)"></circle><circle r="22.5" cx="400" cy="400" stroke-width="14" stroke-dasharray="67 63" stroke-dashoffset="25" transform="rotate(289, 400, 400)"></circle></g></svg>