<svg xmlns="http://www.w3.org/2000/svg" version="1.1" xmlns:xlink="http://www.w3.org/1999/xlink" xmlns:svgjs="http://svgjs.dev/svgjs" viewBox="0 0 800 800" opacity="1"><g stroke="#141414" fill="none" stroke-linecap="square"><circle r="384" cx="400" cy="400" stroke-width="6" stroke-dasharray="33 16" stroke-dashoffset="25" transform="rotate(116, 400, 400)" opacity="0.69"></circle><circle r="376" cx="400" cy="400" stroke-width="5" stroke-dasharray="21 53" stroke-dashoffset="25" transform="rotate(179, 400, 400)" opacity="0.95"></circle><circle r="368" cx="400" cy="400" stroke-width="5" stroke-dasharray="40 14" stroke-dashoffset="25" transform="rotate(262, 400, 400)" opacity="0.40"></circle><circle r="360" cx="400" cy="400" stroke-width="5" stroke-dasharray="36 36" stroke-dashoffset="25" transform="rotate(5, 400, 400)" opacity="0.19"></circle><circle r="352" cx="400" cy="400" stroke-width="5" stroke-dasharray="31 40" stroke-dashoffset="25" transform="rotate(52, 400, 400)" opacity="0.57"></circle><circle r="344" cx="400" cy="400" stroke-width="5" stroke-dasharray="54 21" stroke-dashoffset="25" transform="rotate(153, 400, 400)" opacity="0.33"></circle><circle r="336" cx="400" cy="400" stroke-width="5" stroke-dasharray="33 33" stroke-dashoffset="25" transform="rotate(280, 400, 400)" opacity="0.89"></circle><circle r="328" cx="400" cy="400" stroke-width="5" stroke-dasharray="32 33" stroke-dashoffset="25" transform="rotate(258, 400, 400)" opacity="0.94"></circle><circle r="320" cx="400" cy="400" stroke-width="5" stroke-dasharray="51 54" stroke-dashoffset="25" transform="rotate(10, 400, 400)" opacity="0.24"></circle><circle r="312" cx="400" cy="400" stroke-width="5" stroke-dasharray="46 51" stroke-dashoffset="25" transform="rotate(307, 400, 400)" opacity="0.47"></circle><circle r="304" cx="400" cy="400" stroke-width="5" stroke-dasharray="31 32" stroke-dashoffset="25" transform="rotate(244, 400, 400)" opacity="0.72"></circle><circle r="296" cx="400" cy="400" stroke-width="5" stroke-dasharray="42 13" stroke-dashoffset="25" transform="rotate(60, 400, 400)" opacity="0.44"></circle><circle r="288" cx="400" cy="400" stroke-width="4" stroke-dasharray="51 22" stroke-dashoffset="25" transform="rotate(302, 400, 400)" opacity="0.41"></circle><circle r="280" cx="400" cy="400" stroke-width="4" stroke-dasharray="36 16" stroke-dashoffset="25" transform="rotate(138, 400, 400)" opacity="0.69"></circle><circle r="272" cx="400" cy="400" stroke-width="4" stroke-dasharray="47 18" stroke-dashoffset="25" transform="rotate(203, 400, 400)" opacity="0.59"></circle><circle r="264" cx="400" cy="400" stroke-width="4" stroke-dasharray="16 19" stroke-dashoffset="25" transform="rotate(52, 400, 400)" opacity="0.96"></circle><circle r="256" cx="400" cy="400" stroke-width="4" stroke-dasharray="38 22" stroke-dashoffset="25" transform="rotate(284, 400, 400)" opacity="0.22"></circle><circle r="248" cx="400" cy="400" stroke-width="4" stroke-dasharray="47 14" stroke-dashoffset="25" transform="rotate(36, 400, 400)" opacity="0.95"></circle><circle r="240" cx="400" cy="400" stroke-width="4" stroke-dasharray="16 27" stroke-dashoffset="25" transform="rotate(101, 400, 400)" opacity="0.92"></circle><circle r="232" cx="400" cy="400" stroke-width="4" stroke-dasharray="29 51" stroke-dashoffset="25" transform="rotate(45, 400, 400)" opacity="0.15"></circle><circle r="224" cx="400" cy="400" stroke-width="4" stroke-dasharray="31 48" stroke-dashoffset="25" transform="rotate(190, 400, 400)" opacity="0.67"></circle><circle r="216" cx="400" cy="400" stroke-width="4" stroke-dasharray="15 31" stroke-dashoffset="25" transform="rotate(160, 400, 400)" opacity="0.51"></circle><circle r="208" cx="400" cy="400" stroke-width="4" stroke-dasharray="31 52" stroke-dashoffset="25" transform="rotate(67, 400, 400)" opacity="0.45"></circle><circle r="200" cx="400" cy="400" stroke-width="4" stroke-dasharray="44 15" stroke-dashoffset="25" transform="rotate(72, 400, 400)" opacity="0.74"></circle><circle r="192" cx="400" cy="400" stroke-width="3" stroke-dasharray="29 46" stroke-dashoffset="25" transform="rotate(270, 400, 400)" opacity="0.48"></circle><circle r="184" cx="400" cy="400" stroke-width="3" stroke-dasharray="19 20" stroke-dashoffset="25" transform="rotate(288, 400, 400)" opacity="0.27"></circle><circle r="176" cx="400" cy="400" stroke-width="3" stroke-dasharray="16 49" stroke-dashoffset="25" transform="rotate(60, 400, 400)" opacity="0.69"></circle><circle r="168" cx="400" cy="400" stroke-width="3" stroke-dasharray="22 52" stroke-dashoffset="25" transform="rotate(290, 400, 400)" opacity="0.45"></circle><circle r="160" cx="400" cy="400" stroke-width="3" stroke-dasharray="39 39" stroke-dashoffset="25" transform="rotate(311, 400, 400)" opacity="0.82"></circle><circle r="152" cx="400" cy="400" stroke-width="3" stroke-dasharray="30 43" stroke-dashoffset="25" transform="rotate(67, 400, 400)" opacity="0.39"></circle><circle r="144" cx="400" cy="400" stroke-width="3" stroke-dasharray="52 37" stroke-dashoffset="25" transform="rotate(270, 400, 400)" opacity="0.30"></circle><circle r="136" cx="400" cy="400" stroke-width="3" stroke-dasharray="24 32" stroke-dashoffset="25" transform="rotate(55, 400, 400)" opacity="0.80"></circle><circle r="128" cx="400" cy="400" stroke-width="3" stroke-dasharray="35 39" stroke-dashoffset="25" transform="rotate(124, 400, 400)" opacity="0.89"></circle><circle r="120" cx="400" cy="400" stroke-width="3" stroke-dasharray="34 11" stroke-dashoffset="25" transform="rotate(111, 400, 400)" opacity="0.92"></circle><circle r="112" cx="400" cy="400" stroke-width="3" stroke-dasharray="52 24" stroke-dashoffset="25" transform="rotate(23, 400, 400)" opacity="0.45"></circle><circle r="104" cx="400" cy="400" stroke-width="3" stroke-dasharray="54 27" stroke-dashoffset="25" transform="rotate(194, 400, 400)" opacity="0.49"></circle><circle r="96" cx="400" cy="400" stroke-width="2" stroke-dasharray="53 40" stroke-dashoffset="25" transform="rotate(180, 400, 400)" opacity="0.18"></circle><circle r="88" cx="400" cy="400" stroke-width="2" stroke-dasharray="54 13" stroke-dashoffset="25" transform="rotate(97, 400, 400)" opacity="0.22"></circle><circle r="80" cx="400" cy="400" stroke-width="2" stroke-dasharray="27 17" stroke-dashoffset="25" transform="rotate(296, 400, 400)" opacity="0.11"></circle><circle r="72" cx="400" cy="400" stroke-width="2" stroke-dasharray="31 27" stroke-dashoffset="25" transform="rotate(192, 400, 400)" opacity="0.39"></circle><circle r="64" cx="400" cy="400" stroke-width="2" stroke-dasharray="41 48" stroke-dashoffset="25" transform="rotate(158, 400, 400)" opacity="0.51"></circle><circle r="56" cx="400" cy="400" stroke-width="2" stroke-dasharray="33 33" stroke-dashoffset="25" transform="rotate(246, 400, 400)" opacity="0.46"></circle><circle r="48" cx="400" cy="400" stroke-width="2" stroke-dasharray="40 13" stroke-dashoffset="25" transform="rotate(100, 400, 400)" opacity="0.19"></circle><circle r="40" cx="400" cy="400" stroke-width="2" stroke-dasharray="48 33" stroke-dashoffset="25" transform="rotate(277, 400, 400)" opacity="0.41"></circle><circle r="32" cx="400" cy="400" stroke-width="2" stroke-dasharray="17 29" stroke-dashoffset="25" transform="rotate(320, 400, 400)" opacity="0.60"></circle><circle r="24" cx="400" cy="400" stroke-width="2" stroke-dasharray="18 11" stroke-dashoffset="25" transform="rotate(136, 400, 400)" opacity="0.09"></circle><circle r="16" cx="400" cy="400" stroke-width="2" stroke-dasharray="34 17" stroke-dashoffset="25" transform="rotate(100, 400, 400)" opacity="0.52"></circle><circle r="8" cx="400" cy="400" stroke-width="2" stroke-dasharray="23 14" stroke-dashoffset="25" transform="rotate(211, 400, 400)" opacity="0.18"></circle></g></svg>