<svg xmlns="http://www.w3.org/2000/svg" version="1.1" xmlns:xlink="http://www.w3.org/1999/xlink" xmlns:svgjs="http://svgjs.dev/svgjs" viewBox="0 0 800 800" opacity="1"><g stroke="#141414" fill="none" stroke-linecap="square"><circle r="360" cx="400" cy="400" stroke-width="20" stroke-dasharray="37 75" stroke-dashoffset="25" transform="rotate(328, 400, 400)" opacity="0.53"></circle><circle r="337.5" cx="400" cy="400" stroke-width="19" stroke-dasharray="45 62" stroke-dashoffset="25" transform="rotate(286, 400, 400)" opacity="0.80"></circle><circle r="315" cx="400" cy="400" stroke-width="19" stroke-dasharray="38 34" stroke-dashoffset="25" transform="rotate(295, 400, 400)" opacity="0.40"></circle><circle r="292.5" cx="400" cy="400" stroke-width="18" stroke-dasharray="48 54" stroke-dashoffset="25" transform="rotate(127, 400, 400)" opacity="0.13"></circle><circle r="270" cx="400" cy="400" stroke-width="18" stroke-dasharray="32 68" stroke-dashoffset="25" transform="rotate(32, 400, 400)" opacity="0.45"></circle><circle r="247.5" cx="400" cy="400" stroke-width="18" stroke-dasharray="53 39" stroke-dashoffset="25" transform="rotate(76, 400, 400)" opacity="0.69"></circle><circle r="225" cx="400" cy="400" stroke-width="17" stroke-dasharray="61 42" stroke-dashoffset="25" transform="rotate(346, 400, 400)" opacity="0.84"></circle><circle r="202.5" cx="400" cy="400" stroke-width="17" stroke-dasharray="31 53" stroke-dashoffset="25" transform="rotate(19, 400, 400)" opacity="0.37"></circle><circle r="180" cx="400" cy="400" stroke-width="16" stroke-dasharray="52 54" stroke-dashoffset="25" transform="rotate(283, 400, 400)" opacity="0.21"></circle><circle r="157.5" cx="400" cy="400" stroke-width="16" stroke-dasharray="49 60" stroke-dashoffset="25" transform="rotate(271, 400, 400)" opacity="0.49"></circle><circle r="135" cx="400" cy="400" stroke-width="16" stroke-dasharray="41 75" stroke-dashoffset="25" transform="rotate(59, 400, 400)" opacity="0.35"></circle><circle r="112.5" cx="400" cy="400" stroke-width="15" stroke-dasharray="37 62" stroke-dashoffset="25" transform="rotate(262, 400, 400)" opacity="0.99"></circle><circle r="90" cx="400" cy="400" stroke-width="15" stroke-dasharray="45 72" stroke-dashoffset="25" transform="rotate(303, 400, 400)" opacity="0.95"></circle><circle r="67.5" cx="400" cy="400" stroke-width="14" stroke-dasharray="59 35" stroke-dashoffset="25" transform="rotate(253, 400, 400)" opacity="0.38"></circle><circle r="45" cx="400" cy="400" stroke-width="14" stroke-dasharray="38 74" stroke-dashoffset="25" transform="rotate(298, 400, 400)" opacity="0.27"></circle><circle r="22.5" cx="400" cy="400" stroke-width="14" stroke-dasharray="56 43" stroke-dashoffset="25" transform="rotate(69, 400, 400)" opacity="0.63"></circle></g></svg>