<svg xmlns="http://www.w3.org/2000/svg" version="1.1" xmlns:xlink="http://www.w3.org/1999/xlink" xmlns:svgjs="http://svgjs.dev/svgjs" viewBox="0 0 800 800" opacity="1"><g stroke="#141414" fill="none" stroke-linecap="square"><circle r="384" cx="400" cy="400" stroke-width="6" stroke-dasharray="13 24" stroke-dashoffset="25" transform="rotate(339, 400, 400)"></circle><circle r="376" cx="400" cy="400" stroke-width="5" stroke-dasharray="44 34" stroke-dashoffset="25" transform="rotate(42, 400, 400)"></circle><circle r="368" cx="400" cy="400" stroke-width="5" stroke-dasharray="37 38" stroke-dashoffset="25" transform="rotate(253, 400, 400)"></circle><circle r="360" cx="400" cy="400" stroke-width="5" stroke-dasharray="15 35" stroke-dashoffset="25" transform="rotate(40, 400, 400)"></circle><circle r="352" cx="400" cy="400" stroke-width="5" stroke-dasharray="40 54" stroke-dashoffset="25" transform="rotate(110, 400, 400)"></circle><circle r="344" cx="400" cy="400" stroke-width="5" stroke-dasharray="46 31" stroke-dashoffset="25" transform="rotate(193, 400, 400)"></circle><circle r="336" cx="400" cy="400" stroke-width="5" stroke-dasharray="32 47" stroke-dashoffset="25" transform="rotate(8, 400, 400)"></circle><circle r="328" cx="400" cy="400" stroke-width="5" stroke-dasharray="17 11" stroke-dashoffset="25" transform="rotate(117, 400, 400)"></circle><circle r="320" cx="400" cy="400" stroke-width="5" stroke-dasharray="53 52" stroke-dashoffset="25" transform="rotate(110, 400, 400)"></circle><circle r="312" cx="400" cy="400" stroke-width="5" stroke-dasharray="13 15" stroke-dashoffset="25" transform="rotate(75, 400, 400)"></circle><circle r="304" cx="400" cy="400" stroke-width="5" stroke-dasharray="33 15" stroke-dashoffset="25" transform="rotate(92, 400, 400)"></circle><circle r="296" cx="400" cy="400" stroke-width="5" stroke-dasharray="46 50" stroke-dashoffset="25" transform="rotate(40, 400, 400)"></circle><circle r="288" cx="400" cy="400" stroke-width="4" stroke-dasharray="53 19" stroke-dashoffset="25" transform="rotate(132, 400, 400)"></circle><circle r="280" cx="400" cy="400" stroke-width="4" stroke-dasharray="34 17" stroke-dashoffset="25" transform="rotate(135, 400, 400)"></circle><circle r="272" cx="400" cy="400" stroke-width="4" stroke-dasharray="51 48" stroke-dashoffset="25" transform="rotate(16, 400, 400)"></circle><circle r="264" cx="400" cy="400" stroke-width="4" stroke-dasharray="16 12" stroke-dashoffset="25" transform="rotate(232, 400, 400)"></circle><circle r="256" cx="400" cy="400" stroke-width="4" stroke-dasharray="23 16" stroke-dashoffset="25" transform="rotate(114, 400, 400)"></circle><circle r="248" cx="400" cy="400" stroke-width="4" stroke-dasharray="54 32" stroke-dashoffset="25" transform="rotate(11, 400, 400)"></circle><circle r="240" cx="400" cy="400" stroke-width="4" stroke-dasharray="46 26" stroke-dashoffset="25" transform="rotate(95, 400, 400)"></circle><circle r="232" cx="400" cy="400" stroke-width="4" stroke-dasharray="34 21" stroke-dashoffset="25" transform="rotate(333, 400, 400)"></circle><circle r="224" cx="400" cy="400" stroke-width="4" stroke-dasharray="28 44" stroke-dashoffset="25" transform="rotate(354, 400, 400)"></circle><circle r="216" cx="400" cy="400" stroke-width="4" stroke-dasharray="48 38" stroke-dashoffset="25" transform="rotate(32, 400, 400)"></circle><circle r="208" cx="400" cy="400" stroke-width="4" stroke-dasharray="46 43" stroke-dashoffset="25" transform="rotate(77, 400, 400)"></circle><circle r="200" cx="400" cy="400" stroke-width="4" stroke-dasharray="17 52" stroke-dashoffset="25" transform="rotate(191, 400, 400)"></circle><circle r="192" cx="400" cy="400" stroke-width="3" stroke-dasharray="18 15" stroke-dashoffset="25" transform="rotate(111, 400, 400)"></circle><circle r="184" cx="400" cy="400" stroke-width="3" stroke-dasharray="47 24" stroke-dashoffset="25" transform="rotate(137, 400, 400)"></circle><circle r="176" cx="400" cy="400" stroke-width="3" stroke-dasharray="36 12" stroke-dashoffset="25" transform="rotate(132, 400, 400)"></circle><circle r="168" cx="400" cy="400" stroke-width="3" stroke-dasharray="28 51" stroke-dashoffset="25" transform="rotate(350, 400, 400)"></circle><circle r="160" cx="400" cy="400" stroke-width="3" stroke-dasharray="36 23" stroke-dashoffset="25" transform="rotate(283, 400, 400)"></circle><circle r="152" cx="400" cy="400" stroke-width="3" stroke-dasharray="50 10" stroke-dashoffset="25" transform="rotate(141, 400, 400)"></circle><circle r="144" cx="400" cy="400" stroke-width="3" stroke-dasharray="14 10" stroke-dashoffset="25" transform="rotate(3, 400, 400)"></circle><circle r="136" cx="400" cy="400" stroke-width="3" stroke-dasharray="14 46" stroke-dashoffset="25" transform="rotate(69, 400, 400)"></circle><circle r="128" cx="400" cy="400" stroke-width="3" stroke-dasharray="19 45" stroke-dashoffset="25" transform="rotate(310, 400, 400)"></circle><circle r="120" cx="400" cy="400" stroke-width="3" stroke-dasharray="45 37" stroke-dashoffset="25" transform="rotate(80, 400, 400)"></circle><circle r="112" cx="400" cy="400" stroke-width="3" stroke-dasharray="32 46" stroke-dashoffset="25" transform="rotate(114, 400, 400)"></circle><circle r="104" cx="400" cy="400" stroke-width="3" stroke-dasharray="29 20" stroke-dashoffset="25" transform="rotate(201, 400, 400)"></circle><circle r="96" cx="400" cy="400" stroke-width="2" stroke-dasharray="18 11" stroke-dashoffset="25" transform="rotate(347, 400, 400)"></circle><circle r="88" cx="400" cy="400" stroke-width="2" stroke-dasharray="13 28" stroke-dashoffset="25" transform="rotate(125, 400, 400)"></circle><circle r="80" cx="400" cy="400" stroke-width="2" stroke-dasharray="31 49" stroke-dashoffset="25" transform="rotate(279, 400, 400)"></circle><circle r="72" cx="400" cy="400" stroke-width="2" stroke-dasharray="54 47" stroke-dashoffset="25" transform="rotate(81, 400, 400)"></circle><circle r="64" cx="400" cy="400" stroke-width="2" stroke-dasharray="11 19" stroke-dashoffset="25" transform="rotate(159, 400, 400)"></circle><circle r="56" cx="400" cy="400" stroke-width="2" stroke-dasharray="44 18" stroke-dashoffset="25" transform="rotate(278, 400, 400)"></circle><circle r="48" cx="400" cy="400" stroke-width="2" stroke-dasharray="22 40" stroke-dashoffset="25" transform="rotate(2, 400, 400)"></circle><circle r="40" cx="400" cy="400" stroke-width="2" stroke-dasharray="37 50" stroke-dashoffset="25" transform="rotate(336, 400, 400)"></circle><circle r="32" cx="400" cy="400" stroke-width="2" stroke-dasharray="25 18" stroke-dashoffset="25" transform="rotate(289, 400, 400)"></circle><circle r="24" cx="400" cy="400" stroke-width="2" stroke-dasharray="51 50" stroke-dashoffset="25" transform="rotate(136, 400, 400)"></circle><circle r="16" cx="400" cy="400" stroke-width="2" stroke-dasharray="26 15" stroke-dashoffset="25" transform="rotate(234, 400, 400)"></circle><circle r="8" cx="400" cy="400" stroke-width="2" stroke-dasharray="43 28" stroke-dashoffset="25" transform="rotate(72, 400, 400)"></circle></g></svg>